<?xml version="1.0" encoding="utf-8"?>
<!-- Generator: Adobe Illustrator 16.0.0, SVG Export Plug-In . SVG Version: 6.00 Build 0)  -->
<!DOCTYPE svg PUBLIC "-//W3C//DTD SVG 1.1//EN" "http://www.w3.org/Graphics/SVG/1.1/DTD/svg11.dtd">
<svg version="1.1" id="Layer_1" xmlns="http://www.w3.org/2000/svg" xmlns:xlink="http://www.w3.org/1999/xlink" x="0px" y="0px"
	 width="23.979px" height="23.979px" viewBox="0 0 23.979 23.979" enable-background="new 0 0 23.979 23.979" xml:space="preserve">
<g id="Facebook">
	<path fill="#FFFFFF" d="M11.989,0C5.367,0,0,5.368,0,11.989c0,6.62,5.367,11.989,11.989,11.989c6.621,0,11.99-5.369,11.99-11.989
		C23.979,5.368,18.609,0,11.989,0z M14.729,8.54c-0.055,0-0.094,0-0.135,0c-0.326,0-0.65-0.009-0.975,0.003
		c-0.445,0.016-0.776,0.186-0.792,0.742c-0.011,0.406-0.016,1.343-0.016,1.343s1.046,0.002,1.503,0c0.115-0.001,0.23,0,0.359,0
		c-0.084,0.647-0.164,1.27-0.246,1.898h-1.604v4.741h-1.966v-4.749H9.249v-1.89h1.619v-0.143c0-0.38-0.008-0.759,0.001-1.139
		c0.006-0.241,0.017-0.488,0.059-0.726c0.101-0.576,0.366-1.064,0.849-1.412c0.421-0.302,0.904-0.426,1.415-0.437
		c0.332-0.008,0.666,0.009,1,0.023c0.182,0.009,0.363,0.034,0.537,0.051V8.54z"/>
	<path fill="rgba(78, 118, 185, 0)" d="M23.391,8.284c1.605,4.939-0.154,10.351-4.355,13.403s-9.891,3.053-14.092,0s-5.96-8.464-4.355-13.403
		s6.208-8.283,11.401-8.283C17.182,0.001,21.785,3.345,23.391,8.284z M11.989,1.081c-4.726,0-8.914,3.043-10.374,7.537
		c-1.46,4.494,0.139,9.417,3.962,12.194c3.823,2.779,9,2.779,12.823,0c3.824-2.777,5.424-7.7,3.963-12.194
		S16.715,1.081,11.989,1.081z"/>
	<path fill-rule="evenodd" clip-rule="evenodd" fill="rgba(78, 118, 185, 0)" d="M13.619,8.543c0.324-0.012,0.648-0.003,0.975-0.003
		c0.041,0,0.08,0,0.135,0V6.848c-0.174-0.017-0.355-0.042-0.537-0.051c-0.334-0.015-0.668-0.031-1-0.023
		c-0.511,0.011-0.993,0.135-1.415,0.437c-0.483,0.348-0.748,0.836-0.849,1.412c-0.042,0.237-0.053,0.484-0.059,0.726
		c-0.009,0.38-0.001,0.759-0.001,1.139v0.143H9.249v1.89h1.609v4.749h1.966v-4.741h1.604c0.082-0.629,0.162-1.251,0.246-1.898
		c-0.129,0-0.244-0.001-0.359,0c-0.457,0.002-1.503,0-1.503,0s0.004-0.937,0.016-1.343C12.843,8.729,13.174,8.559,13.619,8.543z"/>
</g>
</svg>
