<?xml version="1.0" encoding="utf-8"?>
<!-- Generator: Adobe Illustrator 16.0.0, SVG Export Plug-In . SVG Version: 6.00 Build 0)  -->
<!DOCTYPE svg PUBLIC "-//W3C//DTD SVG 1.1//EN" "http://www.w3.org/Graphics/SVG/1.1/DTD/svg11.dtd">
<svg version="1.1" id="Layer_1" xmlns="http://www.w3.org/2000/svg" xmlns:xlink="http://www.w3.org/1999/xlink" x="0px" y="0px"
	 width="23.979px" height="23.979px" viewBox="0 0 23.979 23.979" enable-background="new 0 0 23.979 23.979" xml:space="preserve">
<g id="Google_Plus">
	<path fill="#FFFFFF" d="M11.988,0C5.367,0,0,5.368,0,11.989c0,6.62,5.367,11.989,11.988,11.989s11.99-5.369,11.99-11.989
		C23.979,5.368,18.609,0,11.988,0z M13.504,14.754c-0.518,0.689-1.205,1.121-2.033,1.338c-0.445,0.117-0.9,0.158-1.355,0.135
		c-0.813-0.045-1.552-0.301-2.209-0.783c-0.848-0.619-1.385-1.446-1.617-2.471c-0.082-0.366-0.111-0.739-0.088-1.113
		c0.056-0.883,0.355-1.675,0.915-2.363C7.698,8.779,8.44,8.31,9.335,8.081c0.224-0.057,0.45-0.097,0.682-0.105
		c0.132-0.006,0.264-0.014,0.396-0.013c0.7,0.008,1.354,0.184,1.961,0.534c0.406,0.234,0.635,0.467,0.734,0.538
		c-0.408,0.408-0.805,0.804-1.203,1.204c-0.305-0.26-0.637-0.5-1.216-0.586c-1.306-0.192-2.446,0.7-2.72,1.903
		c-0.057,0.248-0.074,0.499-0.051,0.75c0.094,1.018,0.781,1.854,1.705,2.148c0.293,0.094,0.593,0.125,0.897,0.105
		c0.432-0.027,0.839-0.141,1.202-0.387c0.618-0.419,0.813-1.079,0.813-1.243c-0.113,0-2.214,0-2.214,0s-0.001-1.092-0.001-1.597
		c0-0.02,0.002-0.041,0.004-0.065c1.297,0,2.59,0,3.889,0C14.434,12.481,14.254,13.759,13.504,14.754z M19.256,11.363v1.046v0.042
		h-0.041h-1.4v1.402v0.041h-0.043h-1.045h-0.043v-0.041v-1.402h-1.4h-0.041v-0.042v-1.046v-0.041h0.041h1.4V9.921V9.88h0.043h1.045
		h0.043v0.041v1.401h1.4h0.041V11.363z"/>
	<path fill="rgba(240, 86, 73, 0)" d="M23.391,8.284c1.605,4.939-0.152,10.351-4.354,13.403c-4.203,3.053-9.893,3.053-14.094,0
		s-5.96-8.464-4.355-13.403C2.193,3.345,6.797,0.001,11.99,0.001S21.787,3.345,23.391,8.284z M11.99,1.081
		c-4.727,0-8.914,3.043-10.375,7.537c-1.46,4.494,0.14,9.417,3.963,12.194c3.823,2.779,9,2.779,12.822,0
		c3.824-2.777,5.424-7.7,3.963-12.194C20.904,4.124,16.715,1.081,11.99,1.081z"/>
	<g>
		<path fill="rgba(240, 86, 73, 0)" d="M10.324,11.269c-0.002,0.024-0.004,0.046-0.004,0.065c0,0.505,0.001,1.597,0.001,1.597s2.101,0,2.214,0
			c0,0.164-0.194,0.824-0.813,1.243c-0.363,0.246-0.771,0.359-1.202,0.387c-0.305,0.02-0.604-0.012-0.897-0.105
			c-0.924-0.295-1.611-1.131-1.705-2.148c-0.023-0.251-0.006-0.502,0.051-0.75c0.273-1.203,1.414-2.096,2.72-1.903
			c0.579,0.086,0.911,0.326,1.216,0.586c0.398-0.4,0.795-0.796,1.203-1.204c-0.1-0.071-0.328-0.304-0.734-0.538
			c-0.606-0.351-1.261-0.526-1.961-0.534c-0.132-0.001-0.264,0.007-0.396,0.013C9.785,7.984,9.559,8.024,9.335,8.081
			C8.44,8.31,7.698,8.779,7.116,9.496c-0.56,0.688-0.859,1.48-0.915,2.363c-0.023,0.374,0.006,0.747,0.088,1.113
			c0.232,1.024,0.77,1.852,1.617,2.471c0.657,0.482,1.396,0.738,2.209,0.783c0.455,0.023,0.91-0.018,1.355-0.135
			c0.828-0.217,1.516-0.648,2.033-1.338c0.75-0.995,0.93-2.272,0.709-3.485C12.914,11.269,11.621,11.269,10.324,11.269z"/>
		<polygon fill="rgba(240, 86, 73, 0)" points="19.215,11.322 17.814,11.322 17.814,9.921 17.814,9.88 17.771,9.88 16.727,9.88 16.684,9.88 
			16.684,9.921 16.684,11.322 15.283,11.322 15.242,11.322 15.242,11.363 15.242,12.409 15.242,12.451 15.283,12.451 16.684,12.451 
			16.684,13.854 16.684,13.895 16.727,13.895 17.771,13.895 17.814,13.895 17.814,13.854 17.814,12.451 19.215,12.451 
			19.256,12.451 19.256,12.409 19.256,11.363 19.256,11.322 		"/>
	</g>
</g>
</svg>
