<?xml version="1.0" encoding="utf-8"?>
<!-- Generator: Adobe Illustrator 16.0.0, SVG Export Plug-In . SVG Version: 6.00 Build 0)  -->
<!DOCTYPE svg PUBLIC "-//W3C//DTD SVG 1.1//EN" "http://www.w3.org/Graphics/SVG/1.1/DTD/svg11.dtd">
<svg version="1.1" id="Layer_1" xmlns="http://www.w3.org/2000/svg" xmlns:xlink="http://www.w3.org/1999/xlink" x="0px" y="0px"
	 width="23.979px" height="23.979px" viewBox="0 0 23.979 23.979" enable-background="new 0 0 23.979 23.979" xml:space="preserve">
<g id="Instagram">
	<g>
		<path fill="#FFFFFF" d="M11.989,13.755c0.974,0,1.765-0.792,1.765-1.767c0-0.227-0.043-0.443-0.121-0.643
			c-0.258-0.656-0.896-1.123-1.644-1.123s-1.386,0.467-1.644,1.123c-0.078,0.199-0.121,0.416-0.121,0.643
			C10.225,12.963,11.016,13.755,11.989,13.755z"/>
		<path fill="#FFFFFF" d="M14.146,10.086h1.076c0.139,0,0.25-0.111,0.25-0.248V8.76c0-0.137-0.111-0.248-0.25-0.248h-1.076
			c-0.137,0-0.248,0.111-0.248,0.248v1.078C13.898,9.975,14.01,10.086,14.146,10.086z"/>
		<path fill="#FFFFFF" d="M11.988,0C5.367,0,0,5.368,0,11.989c0,6.62,5.367,11.989,11.988,11.989s11.99-5.369,11.99-11.989
			C23.979,5.368,18.609,0,11.988,0z M16.447,15.053c0,0.77-0.625,1.393-1.395,1.393H8.926c-0.77,0-1.394-0.623-1.394-1.393V8.926
			c0-0.77,0.624-1.395,1.394-1.395h6.127c0.77,0,1.395,0.625,1.395,1.395V15.053z"/>
		<path fill="#FFFFFF" d="M14.699,11.988c0,1.498-1.213,2.709-2.71,2.709S9.28,13.486,9.28,11.988c0-0.221,0.026-0.438,0.077-0.643
			H8.477v3.707c0,0.248,0.201,0.449,0.449,0.449h6.127c0.248,0,0.451-0.201,0.451-0.449v-3.707h-0.883
			C14.672,11.551,14.699,11.768,14.699,11.988z"/>
	</g>
	<path fill="rgba(124, 86, 65, 0)" d="M23.391,8.283c1.605,4.94-0.152,10.352-4.354,13.404c-4.203,3.053-9.893,3.053-14.094,0
		s-5.96-8.464-4.355-13.404C2.193,3.344,6.796,0,11.99,0C17.184,0,21.787,3.344,23.391,8.283z M11.99,1.081
		c-4.727,0-8.914,3.043-10.375,7.537c-1.46,4.495,0.14,9.418,3.963,12.195c3.823,2.779,9,2.779,12.822,0
		c3.824-2.777,5.424-7.7,3.963-12.195C20.904,4.124,16.715,1.081,11.99,1.081z"/>
	<path fill-rule="evenodd" clip-rule="evenodd" fill="rgba(124, 86, 65, 0)" d="M15.053,7.531H8.926c-0.77,0-1.394,0.625-1.394,1.395v6.127
		c0,0.77,0.624,1.393,1.394,1.393h6.127c0.77,0,1.395-0.623,1.395-1.393V8.926C16.447,8.156,15.822,7.531,15.053,7.531z
		 M13.898,8.76c0-0.137,0.111-0.248,0.248-0.248h1.076c0.139,0,0.25,0.111,0.25,0.248v1.078c0,0.137-0.111,0.248-0.25,0.248h-1.076
		c-0.137,0-0.248-0.111-0.248-0.248V8.76z M10.346,11.346c0.258-0.656,0.896-1.123,1.644-1.123s1.386,0.467,1.644,1.123
		c0.078,0.199,0.121,0.416,0.121,0.643c0,0.975-0.791,1.767-1.765,1.767s-1.765-0.792-1.765-1.767
		C10.225,11.762,10.268,11.545,10.346,11.346z M15.504,15.053c0,0.248-0.203,0.449-0.451,0.449H8.926
		c-0.248,0-0.449-0.201-0.449-0.449v-3.707h0.881c-0.051,0.205-0.077,0.422-0.077,0.643c0,1.498,1.212,2.709,2.709,2.709
		s2.71-1.211,2.71-2.709c0-0.221-0.027-0.438-0.078-0.643h0.883V15.053z"/>
</g>
</svg>
