<?xml version="1.0" encoding="utf-8"?>
<!-- Generator: Adobe Illustrator 16.0.0, SVG Export Plug-In . SVG Version: 6.00 Build 0)  -->
<!DOCTYPE svg PUBLIC "-//W3C//DTD SVG 1.1//EN" "http://www.w3.org/Graphics/SVG/1.1/DTD/svg11.dtd">
<svg version="1.1" id="Layer_1" xmlns="http://www.w3.org/2000/svg" xmlns:xlink="http://www.w3.org/1999/xlink" x="0px" y="0px"
	 width="23.979px" height="23.979px" viewBox="0 0 23.979 23.979" enable-background="new 0 0 23.979 23.979" xml:space="preserve">
<g id="Linkdin">
	<path fill="#FFFFFF" d="M11.988,0C5.367,0,0,5.368,0,11.989c0,6.62,5.367,11.989,11.988,11.989s11.99-5.369,11.99-11.989
		C23.979,5.368,18.609,0,11.988,0z M10.208,16.498H8.234v-6.337h1.974V16.498z M9.222,9.296c-0.633,0-1.143-0.513-1.143-1.144
		c0-0.629,0.51-1.142,1.143-1.142c0.63,0,1.143,0.513,1.143,1.142C10.364,8.783,9.852,9.296,9.222,9.296z M17.588,16.498h-1.969
		v-3.08c0-0.735-0.016-1.681-1.023-1.681c-1.027,0-1.184,0.8-1.184,1.626v3.135h-1.968v-6.337h1.89v0.866h0.025
		c0.264-0.498,0.906-1.023,1.865-1.023c1.994,0,2.363,1.312,2.363,3.019V16.498z"/>
	<path fill="#1085C7" d="M23.391,8.284c1.605,4.939-0.154,10.351-4.355,13.403s-9.891,3.053-14.093,0
		c-4.201-3.053-5.959-8.464-4.354-13.403c1.604-4.938,6.208-8.283,11.401-8.283C17.184,0.001,21.785,3.346,23.391,8.284z
		 M11.989,1.081c-4.726,0-8.914,3.043-10.374,7.537c-1.461,4.494,0.14,9.417,3.963,12.194c3.822,2.779,9,2.779,12.822,0
		c3.824-2.777,5.424-7.7,3.963-12.194S16.715,1.081,11.989,1.081z"/>
	<g>
		<path fill="#1085C7" d="M8.234,10.161h1.974v6.337H8.234V10.161z M9.222,7.011c0.63,0,1.143,0.513,1.143,1.142
			c0,0.631-0.513,1.144-1.143,1.144c-0.633,0-1.143-0.513-1.143-1.144C8.079,7.523,8.589,7.011,9.222,7.011"/>
		<path fill="#1085C7" d="M11.444,10.161h1.89v0.866h0.025c0.264-0.498,0.906-1.023,1.865-1.023c1.994,0,2.363,1.312,2.363,3.019
			v3.476h-1.969v-3.08c0-0.735-0.016-1.681-1.023-1.681c-1.027,0-1.184,0.8-1.184,1.626v3.135h-1.968V10.161z"/>
	</g>
</g>
</svg>
