<?xml version="1.0" encoding="utf-8"?>
<!-- Generator: Adobe Illustrator 16.0.0, SVG Export Plug-In . SVG Version: 6.00 Build 0)  -->
<!DOCTYPE svg PUBLIC "-//W3C//DTD SVG 1.1//EN" "http://www.w3.org/Graphics/SVG/1.1/DTD/svg11.dtd">
<svg version="1.1" id="Layer_1" xmlns="http://www.w3.org/2000/svg" xmlns:xlink="http://www.w3.org/1999/xlink" x="0px" y="0px"
	 width="23.979px" height="23.979px" viewBox="0 0 23.979 23.979" enable-background="new 0 0 23.979 23.979" xml:space="preserve">
<g id="Pintrest">
	<path fill="#FFFFFF" d="M11.988,0C5.367,0,0,5.368,0,11.989c0,6.62,5.367,11.989,11.988,11.989s11.99-5.369,11.99-11.989
		C23.979,5.368,18.609,0,11.988,0z M15.484,13.293c-1.104,1.369-2.895,1.461-3.721,0.62c-0.064-0.064-0.115-0.14-0.178-0.217
		c-0.01,0.031-0.018,0.057-0.023,0.083c-0.398,1.555-0.441,1.898-0.85,2.621c-0.193,0.342-0.412,0.668-0.654,0.979
		c-0.027,0.035-0.053,0.08-0.107,0.07c-0.061-0.014-0.064-0.066-0.07-0.115c-0.066-0.473-0.102-0.945-0.088-1.422
		c0.021-0.621,0.1-0.834,0.898-4.2c0.012-0.052-0.002-0.095-0.018-0.141c-0.191-0.518-0.23-1.042-0.063-1.573
		c0.361-1.148,1.664-1.236,1.891-0.289c0.141,0.586-0.23,1.353-0.514,2.486c-0.236,0.936,0.863,1.601,1.805,0.917
		c0.867-0.629,1.205-2.138,1.141-3.207c-0.125-2.132-2.463-2.593-3.947-1.906C9.285,8.785,8.9,10.893,9.668,11.856
		c0.096,0.122,0.172,0.197,0.141,0.321c-0.051,0.193-0.094,0.388-0.148,0.579c-0.039,0.143-0.158,0.194-0.303,0.136
		c-0.283-0.114-0.52-0.295-0.711-0.531c-0.65-0.808-0.838-2.404,0.025-3.757c0.955-1.498,2.73-2.104,4.354-1.92
		c1.938,0.221,3.162,1.544,3.391,3.046C16.52,10.414,16.445,12.102,15.484,13.293z"/>
	<path fill="rgba(238, 61, 59, 0)" d="M23.391,8.284c1.605,4.939-0.152,10.351-4.355,13.403c-4.201,3.053-9.891,3.053-14.092,0
		s-5.961-8.464-4.355-13.403s6.209-8.283,11.4-8.283C17.184,0.001,21.785,3.345,23.391,8.284z M11.988,1.081
		c-4.725,0-8.912,3.043-10.373,7.537s0.139,9.417,3.963,12.194c3.822,2.779,9,2.779,12.822,0c3.824-2.777,5.424-7.7,3.963-12.194
		C20.904,4.124,16.715,1.081,11.988,1.081z"/>
	<path fill-rule="evenodd" clip-rule="evenodd" fill="rgba(238, 61, 59, 0)" d="M11.586,13.696c-0.01,0.031-0.018,0.057-0.023,0.083
		c-0.398,1.555-0.441,1.898-0.85,2.621c-0.193,0.342-0.412,0.668-0.654,0.979c-0.027,0.035-0.053,0.08-0.107,0.07
		c-0.061-0.014-0.064-0.066-0.07-0.115c-0.066-0.473-0.102-0.945-0.088-1.422c0.021-0.621,0.1-0.834,0.898-4.2
		c0.012-0.052-0.002-0.095-0.018-0.141c-0.191-0.518-0.23-1.042-0.063-1.573c0.361-1.148,1.664-1.236,1.891-0.289
		c0.141,0.586-0.23,1.353-0.514,2.486c-0.236,0.936,0.863,1.601,1.805,0.917c0.867-0.629,1.205-2.138,1.141-3.207
		c-0.125-2.132-2.463-2.593-3.947-1.906C9.285,8.785,8.9,10.893,9.668,11.856c0.096,0.122,0.172,0.197,0.141,0.321
		c-0.051,0.193-0.094,0.388-0.148,0.579c-0.039,0.143-0.158,0.194-0.303,0.136c-0.283-0.114-0.52-0.295-0.711-0.531
		c-0.65-0.808-0.838-2.404,0.025-3.757c0.955-1.498,2.73-2.104,4.354-1.92c1.938,0.221,3.162,1.544,3.391,3.046
		c0.104,0.684,0.029,2.371-0.932,3.563c-1.104,1.369-2.895,1.461-3.721,0.62C11.699,13.849,11.648,13.773,11.586,13.696z"/>
</g>
</svg>
