<?xml version="1.0" encoding="utf-8"?>
<!-- Generator: Adobe Illustrator 16.0.0, SVG Export Plug-In . SVG Version: 6.00 Build 0)  -->
<!DOCTYPE svg PUBLIC "-//W3C//DTD SVG 1.1//EN" "http://www.w3.org/Graphics/SVG/1.1/DTD/svg11.dtd">
<svg version="1.1" id="Layer_1" xmlns="http://www.w3.org/2000/svg" xmlns:xlink="http://www.w3.org/1999/xlink" x="0px" y="0px"
	 width="281.887px" height="38.678px" viewBox="0 0 281.887 38.678" enable-background="new 0 0 281.887 38.678"
	 xml:space="preserve">
<g>
	<path fill-rule="evenodd" clip-rule="evenodd" fill="#FFFFFF" d="M157.29,1.786c0.449-1.044,1.138-1.531,2.141-1.217
		c0.951,0.297,1.169,1.124,1.17,2.018c0.003,2.674,0.019,5.349-0.012,8.023c-0.016,1.422-0.708,2.174-1.862,2.149
		c-1.186-0.026-1.78-0.747-1.785-2.205c-0.003-0.959,0.098-1.923,0.03-2.877c-0.195-2.75-2.614-4.438-5.609-3.97
		c-2.7,0.422-4.114,2.527-3.529,5.233c0.291,1.343,1.132,2.221,2.402,2.586c1.685,0.484,3.409,0.833,5.114,1.248
		c3.085,0.751,5.507,2.31,6.139,5.643c0.723,3.812-0.135,7.181-3.426,9.576c-2.92,2.125-7.297,2.118-10.529,0.091
		c-0.231-0.145-0.466-0.285-0.74-0.453c-0.089,0.33-0.137,0.6-0.233,0.85c-0.315,0.828-0.959,1.119-1.806,1.078
		c-0.867-0.043-1.425-0.484-1.657-1.305c-0.086-0.301-0.081-0.633-0.082-0.951c-0.002-2.829,0.003-5.658,0.007-8.487
		c0.001-0.399-0.024-0.802,0.014-1.198c0.101-1.044,0.604-1.722,1.732-1.76c1.066-0.036,1.787,0.594,1.889,1.74
		c0.113,1.271,0.03,2.569,0.242,3.82c0.707,4.184,6.053,6.059,9.295,3.299c1.513-1.287,1.771-2.994,1.435-4.809
		c-0.306-1.651-1.517-2.478-3.051-2.859c-1.743-0.433-3.52-0.742-5.246-1.23c-4.128-1.167-6.188-4.209-5.729-8.322
		c0.471-4.209,3.508-7.175,7.606-7.468C153.401-0.126,155.42,0.302,157.29,1.786z"/>
	<path fill-rule="evenodd" clip-rule="evenodd" fill="#FFFFFF" d="M124.012,15.721c2.226,3.194,4.141,5.944,6.059,8.694
		c0.444,0.638,0.999,0.906,1.833,0.834c1.438-0.125,2.081,0.438,2.124,1.633c0.045,1.29-0.675,1.955-2.148,1.957
		c-2.223,0.005-4.447-0.016-6.67,0.001c-1.389,0.01-2.047-0.506-2.098-1.716c-0.057-1.318,0.508-1.857,1.996-1.908
		c0.157-0.006,0.314-0.021,0.686-0.045c-1.416-2.152-2.762-4.197-4.191-6.37c-0.827,0.862-1.889,1.499-2.176,2.385
		c-0.377,1.162-0.164,2.523-0.121,3.795c0.004,0.09,0.691,0.217,1.063,0.225c1.522,0.033,2.098,0.517,2.093,1.82
		c-0.006,1.279-0.682,1.977-2.113,1.783c-2.274-0.309-4.508-0.373-6.786-0.006c-1.356,0.218-2.146-0.581-2.138-1.791
		c0.008-1.209,0.744-1.816,2.169-1.795c1.542,0.023,1.604,0.023,1.61-1.563c0.026-6.158,0.016-12.317-0.002-18.477
		c-0.002-0.497-0.162-0.993-0.264-1.582c-0.504,0.186-0.865,0.349-1.242,0.453c-1.154,0.317-2.055-0.228-2.244-1.334
		c-0.202-1.179,0.46-2.148,1.615-2.199c1.437-0.063,2.879-0.022,4.318-0.019c0.85,0.002,1.369,0.472,1.497,1.27
		c0.119,0.744,0.136,1.509,0.138,2.264c0.014,3.72,0.004,7.439,0.009,11.159c0.001,0.38,0.032,0.76,0.063,1.4
		c1.791-1.906,3.41-3.629,5.216-5.551c-0.848,0.124-1.389,0.245-1.936,0.272c-1.059,0.052-1.647-0.501-1.766-1.54
		c-0.117-1.043,0.447-1.839,1.434-2.034c0.232-0.046,0.479-0.042,0.717-0.042c2.67-0.003,5.34-0.005,8.01,0
		c1.322,0.003,2.068,0.534,2.211,1.546c0.202,1.427-0.676,2.36-2.16,2.013c-1.314-0.307-2.087,0.223-2.939,1.055
		C126.676,13.484,125.361,14.541,124.012,15.721z"/>
	<path fill-rule="evenodd" clip-rule="evenodd" fill="#FFFFFF" d="M244.037,16.101c1.954,2.806,3.875,5.553,5.783,8.307
		c0.484,0.699,1.101,0.902,1.952,0.835c1.338-0.105,1.967,0.469,2.015,1.628c0.05,1.212-0.61,1.896-1.897,1.968
		c-0.079,0.005-0.159,0.003-0.239,0.003c-2.304,0-4.607,0.008-6.911-0.003c-1.252-0.006-1.864-0.616-1.871-1.823
		c-0.007-1.18,0.524-1.729,1.75-1.799c0.236-0.014,0.475-0.002,0.961-0.002c-1.443-2.194-2.788-4.239-4.224-6.423
		c-0.819,0.861-1.875,1.5-2.164,2.388c-0.377,1.162-0.171,2.521-0.132,3.793c0.003,0.093,0.688,0.227,1.058,0.234
		c1.564,0.035,2.155,0.56,2.1,1.93c-0.05,1.236-0.75,1.89-2.217,1.668c-2.237-0.339-4.43-0.346-6.667,0.002
		c-1.362,0.211-2.152-0.574-2.15-1.781c0.003-1.213,0.738-1.828,2.159-1.807c1.553,0.023,1.614,0.023,1.621-1.551
		c0.026-6.159,0.017-12.318-0.001-18.477c-0.001-0.5-0.157-0.999-0.263-1.621c-0.501,0.197-0.857,0.371-1.232,0.477
		c-1.151,0.323-2.06-0.219-2.254-1.319c-0.208-1.178,0.449-2.159,1.601-2.209c1.478-0.065,2.971-0.123,4.433,0.04
		c0.507,0.056,1.125,0.695,1.358,1.217c0.26,0.579,0.173,1.329,0.175,2.004c0.013,3.8,0.006,7.599,0.007,11.399
		c0,0.381-0.001,0.763-0.001,1.483c1.853-1.971,3.471-3.693,5.277-5.616c-0.84,0.121-1.377,0.239-1.92,0.267
		c-1.056,0.055-1.653-0.486-1.775-1.528c-0.122-1.043,0.438-1.842,1.42-2.046c0.194-0.04,0.398-0.043,0.598-0.043
		c2.75-0.002,5.499-0.004,8.249,0.001c1.008,0.002,1.832,0.328,2.082,1.416c0.33,1.443-0.611,2.488-2.128,2.144
		c-1.308-0.297-2.125,0.167-2.934,1.055C246.502,13.576,245.293,14.79,244.037,16.101z"/>
	<path fill-rule="evenodd" clip-rule="evenodd" fill="#FFFFFF" d="M174.38,3.607c-0.501,0.187-0.787,0.31-1.083,0.4
		c-1.127,0.342-1.994-0.085-2.269-1.105c-0.286-1.069,0.355-2.264,1.45-2.345c1.631-0.121,3.279-0.107,4.913-0.026
		c0.97,0.048,1.152,0.902,1.154,1.688c0.006,1.719-0.055,3.438-0.085,5.157c-0.006,0.386-0.001,0.771-0.001,1.418
		c1.523-1.283,3.069-1.861,4.858-1.834c3.934,0.059,6.862,2.76,7.024,6.705c0.112,2.715,0.043,5.437,0.058,8.155
		c0.003,0.561-0.007,1.121,0.027,1.68c0.104,1.666,0.111,1.666,1.75,1.714c1.17,0.034,1.749,0.552,1.816,1.621
		c0.07,1.126-0.492,1.863-1.618,1.966c-0.628,0.057-1.271-0.078-1.908-0.08c-1.547-0.004-3.094,0.014-4.64,0.032
		c-0.438,0.005-0.884,0.106-1.312,0.052c-1.017-0.131-1.737-1.055-1.592-2.047c0.149-1.014,0.779-1.523,1.813-1.545
		c1.935-0.041,2.004-0.064,1.987-2.053c-0.024-3.113-0.033-6.233-0.233-9.339c-0.126-1.934-1.186-2.91-2.875-3.168
		c-1.905-0.29-3.63,0.56-4.379,2.206c-0.212,0.465-0.407,0.981-0.431,1.483c-0.147,3.187-0.271,6.375-0.342,9.565
		c-0.021,0.969,0.221,1.673,1.571,1.372c1.389-0.309,2.109,0.32,2.175,1.512c0.072,1.325-0.632,2.04-2.054,2.046
		c-2.387,0.011-4.773,0.007-7.16,0.001c-1.329-0.002-2.083-0.732-2.044-1.958c0.036-1.104,0.719-1.663,2.037-1.668
		c1.653-0.005,1.727-0.008,1.735-1.701c0.03-5.957,0.019-11.913-0.008-17.87C174.715,4.997,174.509,4.353,174.38,3.607z"/>
	<path fill-rule="evenodd" clip-rule="evenodd" fill="#FFFFFF" d="M12.631,14.964c0,2.639-0.032,5.279,0.01,7.917
		c0.034,2.163,0.324,2.405,2.418,2.346c1.375-0.038,2.189,0.622,2.19,1.778c0.001,1.174-0.789,1.828-2.191,1.805
		c-0.239-0.004-0.483-0.012-0.715-0.062c-2.459-0.529-4.905-0.503-7.373,0.016c-1.695,0.356-2.726-0.247-2.873-1.493
		c-0.158-1.336,0.471-2.047,1.815-2.055c2.572-0.016,2.731-0.168,2.733-2.758C8.651,17.34,8.653,12.222,8.645,7.104
		C8.642,4.669,6.427,3.36,4.38,4.684c-0.51,0.33-0.828,1.261-0.874,1.94c-0.087,1.307,0.118,2.63,0.129,3.947
		c0.005,0.588-0.093,1.199-0.269,1.76c-0.256,0.816-0.878,1.208-1.75,1.146c-0.894-0.063-1.369-0.621-1.542-1.428
		c-0.099-0.461-0.071-0.954-0.072-1.432C-0.001,8.14,0.017,5.663,0,3.186c-0.014-1.928,0.61-2.646,2.492-2.41
		c5.27,0.66,10.524,0.471,15.793,0c2.8-0.251,3.419,0.564,3.225,3.408c-0.138,2.026-0.034,4.069-0.038,6.104
		c-0.001,0.438,0.044,0.88-0.005,1.313c-0.115,1.008-0.667,1.594-1.72,1.64c-1.068,0.047-1.753-0.535-1.825-1.508
		c-0.102-1.384,0.006-2.787,0.068-4.18c0.124-2.762-1.314-3.873-4.001-3.081c-1.158,0.341-1.202,1.314-1.216,2.22
		c-0.043,2.757-0.016,5.516-0.016,8.273C12.715,14.964,12.673,14.964,12.631,14.964z"/>
	<path fill-rule="evenodd" clip-rule="evenodd" fill="#FFFFFF" d="M267.206,11.495c0.227,0.479,0.5,0.88,0.61,1.322
		c0.337,1.353-0.356,2.596-1.587,2.957c-1.263,0.372-2.691-0.405-3.119-1.762c-0.451-1.433-0.126-2.775,0.692-3.99
		c2.177-3.231,7.759-4.139,10.837-1.756c1.681,1.302,2.285,3.158,2.336,5.175c0.079,3.155,0.03,6.314,0.057,9.47
		c0.006,0.676,0.056,1.357,0.176,2.021c0.046,0.258,0.342,0.471,0.524,0.705c0.223-0.243,0.59-0.459,0.639-0.733
		c0.121-0.661,0.089-1.351,0.127-2.028c0.032-0.596-0.083-1.271,0.161-1.766c0.239-0.485,0.828-1.057,1.304-1.096
		c0.487-0.039,1.383,0.437,1.479,0.836c0.536,2.229,0.783,4.545-0.404,6.635c-1.164,2.049-4.734,2.213-6.424,0.422
		c-0.219-0.23-0.401-0.496-0.647-0.805c-0.183,0.133-0.374,0.248-0.537,0.395c-2.288,2.055-6.049,2.462-8.721,0.941
		c-2.278-1.297-3.4-3.855-2.933-6.684c0.446-2.704,2.315-4.646,4.992-5.139c1.53-0.282,3.08-0.464,4.603-0.778
		c1.474-0.303,1.932-0.893,1.983-2.275c0.053-1.409-0.618-2.54-1.813-2.939C269.936,10.088,268.49,10.401,267.206,11.495z
		 M273.301,19.121c-0.878,0.25-1.48,0.455-2.099,0.587c-0.624,0.131-1.267,0.17-1.894,0.286c-0.627,0.115-1.264,0.223-1.864,0.426
		c-1.359,0.46-1.968,1.385-1.869,2.714c0.098,1.318,0.855,2.156,2.223,2.459c2.318,0.514,4.519-0.725,5.117-3.023
		C273.191,21.511,273.171,20.375,273.301,19.121z"/>
	<path fill-rule="evenodd" clip-rule="evenodd" fill="#FFFFFF" d="M71.315,27.73c-1.324,1.103-3.051,1.648-5.009,1.604
		c-4.094-0.092-6.645-2.563-6.736-6.677c-0.052-2.356-0.014-4.715-0.029-7.073c-0.005-0.798-0.006-1.602-0.088-2.395
		c-0.194-1.897-0.213-1.896-2.063-2.118c-0.939-0.112-1.42-0.641-1.466-1.582c-0.046-0.941,0.395-1.648,1.3-1.717
		c1.588-0.12,3.193-0.121,4.784-0.028c0.984,0.058,1.249,0.93,1.271,1.764c0.038,1.477-0.026,2.956-0.015,4.434
		c0.02,2.713-0.025,5.432,0.126,8.139c0.137,2.451,1.288,3.527,3.472,3.596c2.189,0.068,4.002-1.27,4.156-3.461
		c0.236-3.34,0.215-6.699,0.279-10.05c0.016-0.754-0.331-1.118-1.182-1.106c-1.416,0.021-1.968-0.523-1.941-1.68
		c0.025-1.134,0.661-1.676,2.002-1.687c1.078-0.008,2.156-0.004,3.236,0.003c1.294,0.008,1.797,0.504,1.785,1.834
		c-0.006,0.838-0.129,1.675-0.133,2.513c-0.021,3.875-0.02,7.75-0.025,11.625c-0.002,1.145,0.374,1.74,1.711,1.58
		c1.215-0.146,1.807,0.514,1.844,1.662c0.037,1.19-0.584,1.885-1.793,1.917c-1.262,0.033-2.537,0.108-3.781-0.041
		C72.465,28.722,71.967,28.153,71.315,27.73z"/>
	<path fill-rule="evenodd" clip-rule="evenodd" fill="#FFFFFF" d="M216.552,27.675c-1.757,1.567-4,1.933-6.372,1.535
		c-3.375-0.564-5.312-2.891-5.404-6.449c-0.063-2.436-0.018-4.875-0.034-7.312c-0.005-0.759-0.011-1.521-0.09-2.274
		c-0.195-1.868-0.213-1.866-2.079-2.103c-0.938-0.119-1.408-0.658-1.447-1.598c-0.039-0.944,0.411-1.638,1.316-1.703
		c1.589-0.115,3.195-0.121,4.784-0.021c0.98,0.062,1.236,0.944,1.257,1.777c0.036,1.477-0.03,2.956-0.019,4.434
		c0.021,2.714-0.022,5.432,0.13,8.14c0.137,2.441,1.298,3.516,3.486,3.578c2.143,0.061,3.969-1.244,4.124-3.359
		c0.248-3.378,0.225-6.778,0.294-10.169c0.015-0.768-0.361-1.1-1.197-1.088c-1.403,0.02-1.961-0.537-1.925-1.696
		c0.035-1.131,0.669-1.662,2.018-1.67c0.999-0.006,1.997,0.011,2.996,0.004c1.59-0.011,2.046,0.468,2.014,2.089
		c-0.081,4.034-0.153,8.068-0.224,12.102c-0.008,0.438-0.003,0.88,0.023,1.318c0.114,1.872,0.117,1.882,2.001,2.005
		c1.016,0.066,1.511,0.617,1.585,1.597c0.084,1.112-0.425,1.913-1.445,1.979c-1.416,0.093-2.851,0.125-4.259-0.015
		C217.578,28.726,217.127,28.107,216.552,27.675z"/>
	<path fill-rule="evenodd" clip-rule="evenodd" fill="#FFFFFF" d="M98.891,12.65c-0.938-2.237-3.813-2.747-5.707-1.04
		c-1.317,1.187-1.906,2.763-2.104,4.455c-0.285,2.438-0.292,4.878,0.856,7.153c0.914,1.813,2.547,2.731,4.269,2.415
		c1.518-0.277,2.479-1.223,2.974-2.649c0.236-0.677,0.402-1.378,0.602-2.067c0.279-0.963,0.887-1.544,1.922-1.409
		c1.01,0.131,1.688,0.847,1.565,1.801c-0.169,1.318-0.444,2.701-1.036,3.873c-2.604,5.143-9.459,5.652-12.919,1.033
		c-3.119-4.164-3.039-12.061,0.163-16.153c2.579-3.296,7.332-4.127,10.623-1.859c2.234,1.541,3.303,4.292,2.65,6.824
		c-0.393,1.519-1.474,2.496-2.805,2.533c-1.185,0.033-2.111-0.59-2.492-1.675c-0.416-1.185-0.089-2.19,0.956-2.924
		C98.566,12.851,98.734,12.751,98.891,12.65z"/>
	<path fill-rule="evenodd" clip-rule="evenodd" fill="#FFFFFF" d="M38.024,8.475c1.523-1.378,3.536-1.875,5.79-1.287
		c3.626,0.947,5.513,5.391,3.682,8.675c-0.228,0.409-0.546,0.805-0.913,1.093c-0.885,0.695-1.896,0.856-2.919,0.336
		c-0.941-0.479-1.392-1.307-1.315-2.361c0.076-1.042,0.696-1.66,2.037-2.105c0.012-1.185-0.705-1.774-1.738-2.082
		c-1.279-0.381-2.821,0.027-3.384,1.129c-0.514,1.006-0.947,2.16-1.005,3.27c-0.152,2.909-0.118,5.83-0.079,8.745
		c0.02,1.444,0.22,1.544,1.61,1.362c1.336-0.176,2.102,0.376,2.183,1.57c0.084,1.232-0.644,2.007-1.966,2.016
		c-2.544,0.019-5.089,0.018-7.634-0.002c-1.173-0.01-1.865-0.748-1.849-1.892c0.015-1.094,0.667-1.71,1.855-1.724
		c0.579-0.008,1.562,0.217,1.661,0.006c0.302-0.641,0.342-1.442,0.343-2.182c0.008-3.236-0.031-6.473-0.061-9.709
		c-0.004-0.398-0.048-0.796-0.094-1.192c-0.092-0.795-0.34-1.196-1.32-0.925c-1.396,0.385-2.245-0.205-2.376-1.406
		c-0.142-1.312,0.644-2.103,2.114-2.113c1.118-0.008,2.244-0.082,3.351,0.033C36.638,7.795,37.245,8.175,38.024,8.475z"/>
	<circle fill-rule="evenodd" clip-rule="evenodd" fill="#ED1C24" cx="225.795" cy="17.298" r="2"/>
	<g>
		
			<line fill="none" stroke="#ED1C24" stroke-width="2" stroke-linecap="round" stroke-miterlimit="10" x1="238.17" y1="31.923" x2="247.67" y2="31.923"/>
	</g>
	<g>
		
			<line fill="none" stroke="#ED1C24" stroke-width="2" stroke-linecap="round" stroke-miterlimit="10" x1="242.715" y1="31.923" x2="242.715" y2="36.692"/>
	</g>
	<g>
		
			<line fill="none" stroke="#ED1C24" stroke-width="2" stroke-linecap="round" stroke-miterlimit="10" x1="32.17" y1="31.923" x2="41.045" y2="31.923"/>
	</g>
	<circle fill-rule="evenodd" clip-rule="evenodd" fill="#ED1C24" cx="11.067" cy="32.078" r="2"/>
	<circle fill-rule="evenodd" clip-rule="evenodd" fill="#ED1C24" cx="11.067" cy="36.683" r="2"/>
</g>
</svg>
