<?xml version="1.0" encoding="utf-8"?>
<!-- Generator: Adobe Illustrator 16.0.0, SVG Export Plug-In . SVG Version: 6.00 Build 0)  -->
<!DOCTYPE svg PUBLIC "-//W3C//DTD SVG 1.1//EN" "http://www.w3.org/Graphics/SVG/1.1/DTD/svg11.dtd">
<svg version="1.1" id="Layer_1" xmlns="http://www.w3.org/2000/svg" xmlns:xlink="http://www.w3.org/1999/xlink" x="0px" y="0px"
	 width="23.979px" height="23.979px" viewBox="0 0 23.979 23.979" enable-background="new 0 0 23.979 23.979" xml:space="preserve">
<g id="Twitter">
	<path fill="#FFFFFF" d="M11.988,0C5.367,0,0,5.368,0,11.989c0,6.62,5.367,11.989,11.988,11.989s11.99-5.369,11.99-11.989
		C23.979,5.368,18.609,0,11.988,0z M17.826,8.846c-0.246,0.304-0.529,0.571-0.844,0.803c-0.027,0.02-0.039,0.038-0.039,0.073
		c0.014,0.345,0,0.689-0.043,1.031c-0.09,0.723-0.291,1.411-0.6,2.069c-0.318,0.68-0.732,1.293-1.256,1.832
		c-0.885,0.914-1.951,1.506-3.193,1.779c-0.426,0.094-0.857,0.141-1.295,0.154c-1.34,0.039-2.578-0.295-3.719-0.998
		c-0.014-0.01-0.029-0.02-0.055-0.035c0.812,0.086,1.583-0.018,2.325-0.32c0.394-0.162,0.759-0.375,1.104-0.645
		c-1.207-0.043-1.962-0.909-2.162-1.613c0.336,0.064,0.668,0.052,0.996-0.029c0.01-0.002,0.018-0.008,0.034-0.016
		c-0.654-0.152-1.159-0.502-1.51-1.066C7.339,11.49,7.228,11.08,7.23,10.63c0.327,0.174,0.668,0.271,1.035,0.281
		c-0.492-0.354-0.822-0.817-0.957-1.41C7.175,8.91,7.262,8.349,7.559,7.818c1.258,1.481,2.85,2.295,4.793,2.429
		c-0.014-0.093-0.029-0.173-0.037-0.255c-0.066-0.547,0.043-1.057,0.34-1.52c0.369-0.58,0.896-0.94,1.574-1.051
		c0.783-0.128,1.465,0.095,2.035,0.648c0.039,0.037,0.07,0.049,0.123,0.037c0.479-0.104,0.93-0.276,1.354-0.521
		c0.01-0.006,0.02-0.011,0.029-0.016c0.002-0.001,0.006-0.001,0.016-0.001c-0.184,0.54-0.518,0.957-0.994,1.265
		c0.449-0.05,0.879-0.169,1.293-0.349c0.004,0.004,0.008,0.008,0.01,0.011C18.006,8.613,17.92,8.732,17.826,8.846z"/>
	<path fill="rgba(50, 195, 242, 0)" d="M23.391,8.284c1.605,4.939-0.154,10.351-4.355,13.403s-9.891,3.053-14.092,0
		c-4.202-3.053-5.961-8.464-4.355-13.403s6.208-8.283,11.401-8.283C17.182,0.001,21.785,3.345,23.391,8.284z M11.989,1.081
		c-4.726,0-8.914,3.043-10.374,7.537c-1.461,4.494,0.139,9.417,3.963,12.194c3.822,2.779,9,2.779,12.822,0
		c3.824-2.777,5.424-7.7,3.963-12.194S16.715,1.081,11.989,1.081z"/>
	<path fill-rule="evenodd" clip-rule="evenodd" fill="rgba(50, 195, 242, 0)" d="M10.213,14.59c-1.207-0.043-1.962-0.909-2.162-1.613
		c0.336,0.064,0.668,0.052,0.996-0.029c0.01-0.002,0.018-0.008,0.034-0.016c-0.654-0.152-1.159-0.502-1.51-1.066
		C7.339,11.49,7.228,11.08,7.23,10.63c0.327,0.174,0.668,0.271,1.035,0.281c-0.492-0.354-0.822-0.817-0.957-1.41
		C7.175,8.91,7.262,8.349,7.559,7.818c1.258,1.481,2.85,2.295,4.793,2.429c-0.014-0.093-0.029-0.173-0.037-0.255
		c-0.066-0.547,0.043-1.057,0.34-1.52c0.369-0.58,0.896-0.94,1.574-1.051c0.783-0.128,1.465,0.095,2.035,0.648
		c0.039,0.037,0.07,0.049,0.123,0.037c0.479-0.104,0.93-0.276,1.354-0.521c0.01-0.006,0.02-0.011,0.029-0.016
		c0.002-0.001,0.006-0.001,0.016-0.001c-0.184,0.54-0.518,0.957-0.994,1.265c0.449-0.05,0.879-0.169,1.293-0.349
		c0.004,0.004,0.008,0.008,0.01,0.011c-0.088,0.116-0.174,0.235-0.268,0.349c-0.246,0.304-0.529,0.571-0.844,0.803
		c-0.027,0.02-0.039,0.038-0.039,0.073c0.014,0.345,0,0.689-0.043,1.031c-0.09,0.723-0.291,1.411-0.6,2.069
		c-0.318,0.68-0.732,1.293-1.256,1.832c-0.885,0.914-1.951,1.506-3.193,1.779c-0.426,0.094-0.857,0.141-1.295,0.154
		c-1.34,0.039-2.578-0.295-3.719-0.998c-0.014-0.01-0.029-0.02-0.055-0.035c0.812,0.086,1.583-0.018,2.325-0.32
		C9.502,15.072,9.867,14.859,10.213,14.59z"/>
</g>
</svg>
