<?xml version="1.0" encoding="utf-8"?>
<!-- Generator: Adobe Illustrator 16.0.0, SVG Export Plug-In . SVG Version: 6.00 Build 0)  -->
<!DOCTYPE svg PUBLIC "-//W3C//DTD SVG 1.1//EN" "http://www.w3.org/Graphics/SVG/1.1/DTD/svg11.dtd">
<svg version="1.1" id="Layer_1" xmlns="http://www.w3.org/2000/svg" xmlns:xlink="http://www.w3.org/1999/xlink" x="0px" y="0px"
	 width="23.979px" height="23.979px" viewBox="0 0 23.979 23.979" enable-background="new 0 0 23.979 23.979" xml:space="preserve">
<g id="Youtube">
	<g>
		<path fill="#FFFFFF" d="M10.737,13.522c1.055-0.547,2.099-1.089,3.157-1.638c-1.059-0.554-2.104-1.099-3.157-1.648
			C10.737,11.335,10.737,12.422,10.737,13.522z"/>
		<path fill="#FFFFFF" d="M11.988,0C5.367,0,0,5.368,0,11.989c0,6.62,5.367,11.989,11.988,11.989s11.99-5.369,11.99-11.989
			C23.979,5.368,18.609,0,11.988,0z M16.75,14.734c-0.117,0.25-0.309,0.428-0.551,0.555c-0.654,0.344-7.387,0.338-8.248,0.055
			c-0.384-0.125-0.643-0.377-0.781-0.758c-0.338-0.929-0.438-4.817,0.213-5.583c0.223-0.262,0.51-0.416,0.85-0.452
			c1.754-0.188,7.174-0.162,7.799,0.063c0.365,0.132,0.625,0.371,0.768,0.737C17.168,10.313,17.182,13.809,16.75,14.734z"/>
	</g>
	<path fill="#EE3E37" d="M23.391,8.284c1.605,4.939-0.154,10.351-4.355,13.403s-9.891,3.053-14.092,0s-5.96-8.464-4.355-13.403
		C2.193,3.345,6.797,0.001,11.99,0.001C17.182,0.001,21.785,3.345,23.391,8.284z M11.99,1.081c-4.727,0-8.914,3.043-10.375,7.537
		c-1.46,4.494,0.14,9.417,3.963,12.194c3.823,2.779,9,2.779,12.822,0c3.824-2.777,5.424-7.7,3.963-12.194S16.715,1.081,11.99,1.081z
		"/>
	<g>
		<path fill-rule="evenodd" clip-rule="evenodd" fill="#EE3E37" d="M7.951,15.344c-0.384-0.125-0.643-0.377-0.781-0.758
			c-0.338-0.929-0.438-4.817,0.213-5.583c0.223-0.262,0.51-0.416,0.85-0.452c1.754-0.188,7.174-0.162,7.799,0.063
			c0.365,0.132,0.625,0.371,0.768,0.737c0.369,0.961,0.383,4.457-0.049,5.383c-0.117,0.25-0.309,0.428-0.551,0.555
			C15.545,15.633,8.813,15.627,7.951,15.344z M10.737,13.522c1.055-0.547,2.099-1.089,3.157-1.638
			c-1.059-0.554-2.104-1.099-3.157-1.648C10.737,11.335,10.737,12.422,10.737,13.522z"/>
	</g>
</g>
</svg>
